<?xml version="1.0" encoding="utf-8"?>
<!-- Svg Vector Icons : http://www.onlinewebfonts.com/icon -->
<!DOCTYPE svg PUBLIC "-//W3C//DTD SVG 1.1//EN" "http://www.w3.org/Graphics/SVG/1.1/DTD/svg11.dtd">
<svg version="1.1" xmlns="http://www.w3.org/2000/svg" xmlns:xlink="http://www.w3.org/1999/xlink" fill="#f95738" x="0px"
        y="0px"
     viewBox="0 0 1000 1000" enable-background="new 0 0 1000 1000" xml:space="preserve">
<metadata> Svg Vector Icons : http://www.onlinewebfonts.com/icon </metadata>
<g><path d="M836.9,316.2v551.2c0,67.7-54.8,122.5-122.5,122.5H285.6c-67.7,0-122.5-54.8-122.5-122.5V316.2c-33.8,0-61.3-27.4-61.3-61.2v-61.3c0-33.8,27.4-61.2,61.3-61.2h183.7V71.2c0-33.8,27.4-61.2,61.2-61.2h183.7c33.8,0,61.3,27.4,61.3,61.2v61.2h183.8c33.8,0,61.2,27.4,61.2,61.2V255C898.1,288.8,870.7,316.2,836.9,316.2z M209.8,316.2v567c0,33.8,26.3,61.3,60.1,61.3h460.2c33.8,0,61.3-27.4,61.3-61.3v-567C756.9,316.2,251.9,316.2,209.8,316.2z M392.4,132.5V86.1c0-16.9,13.7-30.6,30.6-30.6h154c16.9,0,30.6,13.7,30.6,30.6v46.3C577.9,132.5,392.4,132.5,392.4,132.5 M822,178.1H178c-16.9,0-30.6,25.9-30.6,46.2c0,20.3,13.7,46.2,30.6,46.2H822c16.9,0,30.6-25.9,30.6-46.2C852.6,204,838.9,178.1,822,178.1z M380.9,438.7c12.6,0,22.8,13.7,22.8,30.6v367.5c0,16.9-10.2,30.6-22.8,30.6c-12.6,0-22.8-13.7-22.8-30.6V469.4C358.1,452.5,368.3,438.7,380.9,438.7z M503.3,438.7c12.6,0,22.7,13.7,22.7,30.6v367.5c0,16.9-10.2,30.6-22.7,30.6c-12.5,0-22.7-13.7-22.7-30.6V469.4C480.6,452.5,490.8,438.7,503.3,438.7z M625.8,438.7c12.5,0,22.7,13.7,22.7,30.6v367.5c0,16.9-10.2,30.6-22.7,30.6c-12.5,0-22.7-13.7-22.7-30.6V469.4C603.1,452.5,613.3,438.7,625.8,438.7z"/></g>
</svg>
